<svg xmlns="http://www.w3.org/2000/svg" width="22.5" height="32" viewBox="0 0 22.5 32">
  <g id="placeholder" transform="translate(-76)">
    <g id="Group_158" data-name="Group 158" transform="translate(76)">
      <g id="Group_157" data-name="Group 157">
        <path id="Path_3282" data-name="Path 3282" d="M87.25,0a11.252,11.252,0,0,0-9.571,17.166l8.93,14.391a.937.937,0,0,0,.8.443h.007a.937.937,0,0,0,.8-.456l8.7-14.531A11.252,11.252,0,0,0,87.25,0ZM95.3,16.051,87.392,29.262,79.273,16.178A9.381,9.381,0,1,1,95.3,16.051Z" transform="translate(-76)" fill="#fe8a09"/>
      </g>
    </g>
    <g id="Group_160" data-name="Group 160" transform="translate(81.625 5.625)">
      <g id="Group_159" data-name="Group 159">
        <path id="Path_3283" data-name="Path 3283" d="M171.625,90a5.625,5.625,0,1,0,5.625,5.625A5.631,5.631,0,0,0,171.625,90Zm0,9.388a3.763,3.763,0,1,1,3.756-3.763A3.765,3.765,0,0,1,171.625,99.388Z" transform="translate(-166 -90)" fill="#fe8a09"/>
      </g>
    </g>
  </g>
</svg>
