<svg id="mail" xmlns="http://www.w3.org/2000/svg" width="32.727" height="23.011" viewBox="0 0 32.727 23.011">
  <g id="Group_155" data-name="Group 155" transform="translate(0 0)">
    <path id="Path_3280" data-name="Path 3280" d="M29.851,76H2.876A2.881,2.881,0,0,0,0,78.876V96.135a2.881,2.881,0,0,0,2.876,2.876H29.851a2.88,2.88,0,0,0,2.876-2.876V78.876A2.879,2.879,0,0,0,29.851,76Zm-.4,1.918L18.4,88.91a2.876,2.876,0,0,1-4.07,0L3.279,77.918ZM1.918,95.745V79.268L10.2,87.511ZM3.28,97.094l8.283-8.231,1.41,1.4a4.794,4.794,0,0,0,6.778,0l1.412-1.4,8.283,8.231ZM30.81,95.745l-8.287-8.234,8.287-8.243Z" transform="translate(0 -76)" fill="#fe8a09"/>
  </g>
</svg>
