<svg id="phone-call" xmlns="http://www.w3.org/2000/svg" width="32" height="32" viewBox="0 0 32 32">
  <g id="Group_156" data-name="Group 156">
    <path id="Path_3281" data-name="Path 3281" d="M29.474,21.069a18.266,18.266,0,0,1-5.741-.915,2.46,2.46,0,0,0-2.5.529L17.6,23.427A20.292,20.292,0,0,1,8.571,14.4l2.669-3.547a2.55,2.55,0,0,0,.625-2.577,18.315,18.315,0,0,1-.918-5.748A2.529,2.529,0,0,0,8.421,0H2.526A2.529,2.529,0,0,0,0,2.526,29.508,29.508,0,0,0,29.474,32,2.529,2.529,0,0,0,32,29.474V23.6A2.529,2.529,0,0,0,29.474,21.069Zm.842,8.4a.844.844,0,0,1-.842.842A27.821,27.821,0,0,1,1.684,2.526a.844.844,0,0,1,.842-.842H8.421a.844.844,0,0,1,.842.842,19.994,19.994,0,0,0,1,6.265.932.932,0,0,1-.29.96L6.905,13.811a.842.842,0,0,0-.077.889A22.1,22.1,0,0,0,17.3,25.172a.838.838,0,0,0,.891-.077l4.147-3.143a.845.845,0,0,1,.857-.2,19.981,19.981,0,0,0,6.279,1,.844.844,0,0,1,.842.842v5.878Z" fill="#fe8a09"/>
  </g>
</svg>
